# xmcd
#
# Track frame offsets:
#	150
#	25075
#	46875
#	65325
#	86600
#	105250
#	128550
#	162700
#	182850
#	202300
#	226925
#	246575
#
# Disc length: 3686 seconds
# Revision: 0
# Processed by: cddbd v1.5.2PL0 Copyright (c) Steve Scherf et al.
# Submitted via: dBpowerAMP V12.0
#
DISCID=a20e640c
DTITLE=Blues Fever - Blues Fever
DYEAR=2009
DGENRE=Blues
TTITLE0=Too rich
TTITLE1=Fever
TTITLE2=Who's loving you tonight
TTITLE3=Caledonia
TTITLE4=Minnie the moocher
TTITLE5=the game is up
TTITLE6=Sad morning
TTITLE7=See saw
TTITLE8=Everybody's happy (but me)
TTITLE9=Hey bartender
TTITLE10=Flipp, flopp 'n' fly
TTITLE11=Dr Feelgod
EXTD=
EXTT0=
EXTT1=
EXTT2=
EXTT3=
EXTT4=
EXTT5=
EXTT6=
EXTT7=
EXTT8=
EXTT9=
EXTT10=
EXTT11=
PLAYORDER=
